<svg xmlns="http://www.w3.org/2000/svg" width="20" height="20" viewBox="0 0 20 20" fill="none">
  <path d="M16.7495 9.08365H3.25016V16.6667C3.25016 17.1729 3.66024 17.583 4.1665 17.583H15.8332C16.3394 17.583 16.7495 17.1729 16.7495 16.6667V9.08365ZM12.5828 4.99999V4.08365H7.41683V4.99999C7.41683 5.41421 7.08072 5.75032 6.6665 5.75032C6.25229 5.75032 5.91618 5.41421 5.91618 4.99999V4.08365H4.1665C3.66024 4.08365 3.25016 4.49373 3.25016 4.99999V7.583H16.7495V4.99999C16.7495 4.49373 16.3394 4.08365 15.8332 4.08365H14.0835V4.99999C14.0835 5.41421 13.7474 5.75032 13.3332 5.75032C12.919 5.75032 12.5828 5.41421 12.5828 4.99999ZM18.2502 16.6667C18.2502 18.0013 17.1679 19.0837 15.8332 19.0837H4.1665C2.83182 19.0837 1.74951 18.0013 1.74951 16.6667V4.99999C1.74951 3.66531 2.83182 2.583 4.1665 2.583H5.91618V1.66666C5.91618 1.25245 6.25229 0.916336 6.6665 0.916336C7.08072 0.916336 7.41683 1.25245 7.41683 1.66666V2.583H12.5828V1.66666C12.5828 1.25245 12.919 0.916336 13.3332 0.916336C13.7474 0.916336 14.0835 1.25245 14.0835 1.66666V2.583H15.8332C17.1679 2.583 18.2502 3.66531 18.2502 4.99999V16.6667Z" fill="#080218"/>
</svg>