<svg xmlns="http://www.w3.org/2000/svg" width="20" height="20" viewBox="0 0 20 20" fill="none">
  <path d="M5.99951 15.9974C5.44723 15.9974 4.99951 15.5497 4.99951 14.9974C4.99951 14.4451 4.5518 13.9974 3.99951 13.9974H1.99951C1.44723 13.9974 0.999512 13.5497 0.999512 12.9974C0.999512 12.4451 1.44723 11.9974 1.99951 11.9974H3.99951C4.5518 11.9974 4.99951 11.5497 4.99951 10.9974C4.99951 10.4451 5.44723 9.9974 5.99951 9.9974C6.5518 9.9974 6.99951 10.4451 6.99951 10.9974V14.9974C6.99951 15.5497 6.5518 15.9974 5.99951 15.9974ZM9.99951 13.9974C9.44723 13.9974 8.99951 13.5497 8.99951 12.9974C8.99951 12.4451 9.44723 11.9974 9.99951 11.9974H17.9995C18.5518 11.9974 18.9995 12.4451 18.9995 12.9974C18.9995 13.5497 18.5518 13.9974 17.9995 13.9974H9.99951ZM13.9995 9.9974C13.4472 9.9974 12.9995 9.54968 12.9995 8.9974V4.9974C12.9995 4.44511 13.4472 3.9974 13.9995 3.9974C14.5518 3.9974 14.9995 4.44511 14.9995 4.9974C14.9995 5.54968 15.4472 5.9974 15.9995 5.9974H17.9995C18.5518 5.9974 18.9995 6.44511 18.9995 6.9974C18.9995 7.54968 18.5518 7.9974 17.9995 7.9974H15.9995C15.4472 7.9974 14.9995 8.44511 14.9995 8.9974C14.9995 9.54968 14.5518 9.9974 13.9995 9.9974ZM1.99951 7.9974C1.44723 7.9974 0.999512 7.54968 0.999512 6.9974C0.999512 6.44511 1.44723 5.9974 1.99951 5.9974H9.99951C10.5518 5.9974 10.9995 6.44511 10.9995 6.9974C10.9995 7.54968 10.5518 7.9974 9.99951 7.9974H1.99951Z" fill="#080218"/>
</svg>