<svg xmlns="http://www.w3.org/2000/svg" width="22" height="22" viewBox="0 0 22 22" fill="none">
  <path d="M1 22C0.447715 22 0 21.5523 0 21V1C0 0.447716 0.447715 0 1 0H10C10.5523 0 11 0.447715 11 1V1.44444C11 1.99673 10.5523 2.44444 10 2.44444H2.94445C2.6683 2.44444 2.44444 2.6683 2.44444 2.94444V19.0556C2.44444 19.3317 2.6683 19.5556 2.94444 19.5556H10C10.5523 19.5556 11 20.0033 11 20.5556V21C11 21.5523 10.5523 22 10 22H1ZM16.615 16.385C16.2171 16.7829 15.5695 16.7743 15.1823 16.366L14.8784 16.0455C14.5055 15.6523 14.5137 15.0335 14.8969 14.6503L16.8982 12.649C17.0557 12.4915 16.9442 12.2222 16.7214 12.2222H8.33333C7.78105 12.2222 7.33333 11.7745 7.33333 11.2222V10.7778C7.33333 10.2255 7.78105 9.77778 8.33333 9.77778H16.7214C16.9442 9.77778 17.0557 9.50849 16.8982 9.351L14.8969 7.34969C14.5137 6.96648 14.5055 6.34775 14.8784 5.9545L15.1823 5.63403C15.5695 5.22574 16.2171 5.21714 16.615 5.61502L22 11L16.615 16.385Z" fill="#080218"/>
</svg>